<?xml version="1.0" encoding="utf-8"?>
<!-- Generator: Adobe Illustrator 19.2.0, SVG Export Plug-In . SVG Version: 6.00 Build 0)  -->
<svg version="1.1" id="Layer_1" xmlns="http://www.w3.org/2000/svg" xmlns:xlink="http://www.w3.org/1999/xlink" x="0px" y="0px"
	 viewBox="0 0 32 32" height="32px" width="32px" style="enable-background:new 0 0 32 32;" xml:space="preserve">
<style type="text/css">
	.st0{clip-path:url(#SVGID_2_);fill:#EA4C89;}
	.st1{clip-path:url(#SVGID_4_);fill:#C32361;}
</style>
<g>
	<g>
		<defs>
			<path id="SVGID_1_" d="M16.7,2c8.1,0,14.7,6.6,14.7,14.7s-6.6,14.7-14.7,14.7C8.6,31.3,2,24.8,2,16.7S8.6,2,16.7,2L16.7,2z"/>
		</defs>
		<clipPath id="SVGID_2_">
			<use xlink:href="#SVGID_1_"  style="overflow:visible;"/>
		</clipPath>
		<circle class="st0" cx="16" cy="16.1" r="14.3"/>
	</g>
	<g>
		<defs>
			<path id="SVGID_3_" d="M16,31.8c-8.7,0-15.8-7.1-15.8-15.7C0.3,7.4,7.3,0.4,16,0.4c8.7,0,15.8,7.1,15.8,15.7
				C31.8,24.8,24.7,31.8,16,31.8L16,31.8z M29.3,18.3c-0.5-0.1-4.2-1.2-8.4-0.6c1.8,4.8,2.5,8.8,2.6,9.6
				C26.5,25.2,28.7,22,29.3,18.3L29.3,18.3z M21.3,28.5c-0.2-1.2-1-5.3-2.9-10.2c0,0-0.1,0-0.1,0C10.7,21,8,26.2,7.7,26.7
				c2.3,1.8,5.1,2.8,8.3,2.8C17.9,29.6,19.6,29.2,21.3,28.5L21.3,28.5z M6,25.1c0.3-0.5,4-6.6,10.9-8.9c0.2-0.1,0.4-0.1,0.5-0.2
				c-0.3-0.8-0.7-1.5-1.1-2.3c-6.7,2-13.2,1.9-13.8,1.9c0,0.1,0,0.3,0,0.4C2.5,19.6,3.9,22.7,6,25.1L6,25.1z M2.8,13.4
				c0.6,0,6.1,0,12.4-1.6c-2.2-4-4.6-7.3-5-7.8C6.5,5.7,3.7,9.2,2.8,13.4L2.8,13.4z M12.9,3.1c0.4,0.5,2.8,3.8,5,7.9
				c4.8-1.8,6.8-4.5,7.1-4.9C22.5,4,19.4,2.7,16,2.7C14.9,2.7,13.9,2.8,12.9,3.1L12.9,3.1z M26.4,7.6c-0.3,0.4-2.5,3.3-7.5,5.3
				c0.3,0.6,0.6,1.3,0.9,1.9c0.1,0.2,0.2,0.5,0.3,0.7c4.5-0.6,8.9,0.3,9.4,0.4C29.4,12.8,28.3,9.9,26.4,7.6L26.4,7.6z"/>
		</defs>
		<clipPath id="SVGID_4_">
			<use xlink:href="#SVGID_3_"  style="overflow:visible;"/>
		</clipPath>
		<rect class="st1" width="31.9" height="31.9"/>
	</g>
	<g>
		<defs>
			<path id="SVGID_5_" d="M16,31.8L16,31.8c-4.3-0.1-8.2-1.8-11.1-4.7c-2.8-2.8-4.6-6.7-4.6-11.1l0,0c0-4.3,1.8-8.2,4.6-11.1
				C7.8,2.2,11.7,0.5,16,0.5c4.3,0,8.2,1.8,11.1,4.6c2.8,2.8,4.6,6.7,4.6,11.1c0,4.3-1.8,8.2-4.6,11.1C24.2,30,20.3,31.8,16,31.8
				L16,31.8L16,31.8c8.7,0.1,15.8-7,15.8-15.7c0-8.7-7.1-15.8-15.8-15.8C7.3,0.3,0.2,7.4,0.2,16.1l0,0C0.2,24.8,7.3,31.9,16,31.8
				L16,31.8L16,31.8L16,31.8z M29.3,18.3L29.3,18.3c-0.3-0.2-2.6-0.9-5.6-0.9c-0.9,0-1.8,0.1-2.8,0.2l-0.1,0l0,0.1
				c1.8,4.8,2.5,8.8,2.6,9.6l0,0.1l0.1-0.1C26.6,25.3,28.8,22,29.3,18.3L29.3,18.3L29.3,18.3L29.3,18.3L29.3,18.3
				c-0.7,3.7-2.8,6.9-5.8,8.9l0,0.1l0.1,0c-0.1-0.8-0.9-4.8-2.6-9.6l-0.1,0l0,0.1c1-0.2,1.9-0.2,2.8-0.2
				C26.6,17.6,28.9,18.2,29.3,18.3L29.3,18.3L29.3,18.3L29.3,18.3L29.3,18.3L29.3,18.3z M21.3,28.5L21.3,28.5
				c-0.1-1.2-0.9-5.3-2.8-10.2l0-0.1l-0.1,0c0,0-0.1,0-0.1,0c-7.6,2.7-10.4,7.9-10.6,8.4l0,0.1l0.1,0c2.3,1.8,5.2,2.9,8.3,2.9
				C17.9,29.7,19.7,29.3,21.3,28.5L21.3,28.5L21.3,28.5L21.3,28.5L21.3,28.5c-1.6,0.6-3.4,1-5.3,1c-3.1,0-5.9-1.1-8.2-2.8l0,0.1
				l0.1,0c0.2-0.5,2.9-5.7,10.5-8.4c0,0,0.1,0,0.1,0l0-0.1l-0.1,0C20.2,23.2,21,27.3,21.3,28.5L21.3,28.5L21.3,28.5L21.3,28.5
				L21.3,28.5L21.3,28.5z M6,25.1L6,25.1c0.4-0.5,4.1-6.6,11-8.8c0.2-0.1,0.4-0.1,0.5-0.2l0.1,0l0-0.1c-0.3-0.8-0.7-1.5-1.1-2.3
				l0-0.1l-0.1,0C10.4,15.5,4.6,15.6,3,15.6c-0.2,0-0.4,0-0.4,0l-0.1,0l0,0.1c0,0.1,0,0.3,0,0.4C2.5,19.6,3.8,22.8,6,25.1l0,0.1
				L6,25.1L6,25.1L6,25.1c-2.1-2.4-3.4-5.6-3.4-9c0-0.1,0-0.3,0-0.4l-0.1,0l0,0.1c0.1,0,0.2,0,0.4,0c1.7,0,7.5-0.1,13.4-1.9l0-0.1
				l-0.1,0c0.4,0.8,0.8,1.5,1.1,2.3l0.1,0l0-0.1c-0.2,0.1-0.4,0.1-0.5,0.2C9.9,18.4,6.2,24.6,6,25.1L6,25.1L6,25.1L6,25.1L6,25.1
				L6,25.1z M2.8,13.4L2.8,13.4c0,0.1,0.1,0.1,0.2,0.1c1.2,0,6.4-0.1,12.2-1.6l0.1,0l-0.1-0.1c-2.2-4-4.6-7.3-5-7.8l0-0.1l-0.1,0
				C6.5,5.7,3.6,9.2,2.8,13.4L2.8,13.4L2.8,13.4L2.8,13.4L2.8,13.4C3.8,9.3,6.6,5.8,10.3,4l0-0.1l-0.1,0c0.4,0.5,2.8,3.8,5,7.8
				l0.1,0l0-0.1c-5.8,1.5-11,1.6-12.2,1.6C3,13.3,2.9,13.3,2.8,13.4L2.8,13.4L2.8,13.4L2.8,13.4L2.8,13.4L2.8,13.4z M12.9,3.1
				L12.9,3.1c0.3,0.5,2.7,3.9,5,7.9l0,0.1l0.1,0c4.8-1.8,6.8-4.5,7.1-4.9l0-0.1L25,6c-2.4-2.1-5.5-3.4-9-3.4
				C14.9,2.6,13.8,2.7,12.9,3.1l-0.1,0L12.9,3.1L12.9,3.1L12.9,3.1c1-0.2,2.1-0.3,3.2-0.3c3.4,0,6.5,1.3,8.9,3.4l0.1-0.1l-0.1,0
				c-0.2,0.3-2.2,3-7,4.8l0,0.1l0.1,0C15.7,6.8,13.3,3.5,12.9,3.1L12.9,3.1L12.9,3.1L12.9,3.1L12.9,3.1L12.9,3.1z M26.4,7.6
				L26.4,7.6c-0.3,0.3-2.6,3.2-7.5,5.2l-0.1,0l0,0.1c0.3,0.6,0.6,1.3,0.9,1.9c0.1,0.2,0.2,0.5,0.3,0.7l0,0.1l0.1,0
				c1-0.1,2.1-0.2,3.1-0.2c3.2,0,5.9,0.5,6.3,0.6l0.1,0l0-0.1C29.5,12.8,28.4,9.9,26.4,7.6l0-0.1L26.4,7.6L26.4,7.6L26.4,7.6
				c1.8,2.3,2.9,5.2,3,8.4l0.1,0l0-0.1c-0.3-0.1-3-0.6-6.3-0.6c-1,0-2.1,0.1-3.1,0.2l0,0.1l0.1,0c-0.1-0.2-0.2-0.5-0.3-0.7
				c-0.3-0.7-0.6-1.3-0.9-2l-0.1,0l0,0.1C23.9,11,26.2,8.1,26.4,7.6L26.4,7.6L26.4,7.6L26.4,7.6L26.4,7.6L26.4,7.6z"/>
		</defs>
		<clipPath id="SVGID_6_">
			<use xlink:href="#SVGID_5_"  style="overflow:visible;"/>
		</clipPath>
	</g>
</g>
</svg>
