<svg id="Planety" xmlns="http://www.w3.org/2000/svg" xmlns:xlink="http://www.w3.org/1999/xlink" viewBox="0 0 2560 1440"><defs><style>.cls-1{fill:none;}.cls-2{clip-path:url(#clip-path);}.cls-3{fill:#8d72a0;}.cls-3,.cls-4{fill-opacity:0.5;opacity:0.4;}.cls-4{fill:url(#linear-gradient);}.cls-5{clip-path:url(#clip-path-2);}.cls-6{fill:url(#linear-gradient-2);}.cls-7{fill:url(#radial-gradient);}.cls-8{fill:url(#linear-gradient-3);}.cls-9{fill:url(#linear-gradient-4);}</style><clipPath id="clip-path"><rect class="cls-1" x="1.33" width="2558.67" height="1440"/></clipPath><linearGradient id="linear-gradient" x1="89" y1="23.07" x2="89" y2="1430.93" gradientUnits="userSpaceOnUse"><stop offset="0" stop-color="#8d72a0"/><stop offset="1" stop-color="#8d72a0" stop-opacity="0.2"/></linearGradient><clipPath id="clip-path-2"><circle class="cls-1" cx="89" cy="727" r="612.11" transform="translate(-243.28 74.28) rotate(-20)"/></clipPath><linearGradient id="linear-gradient-2" x1="-478.69" y1="956.36" x2="656.69" y2="497.64" gradientUnits="userSpaceOnUse"><stop offset="0.49" stop-color="#bf2c76"/><stop offset="1" stop-color="#e8176b"/></linearGradient><radialGradient id="radial-gradient" cx="187.14" cy="780.6" r="437.71" gradientUnits="userSpaceOnUse"><stop offset="0.49" stop-color="#e82374"/><stop offset="1" stop-color="#e8176b"/></radialGradient><linearGradient id="linear-gradient-3" x1="113.41" y1="739.85" x2="705.94" y2="500.46" gradientUnits="userSpaceOnUse"><stop offset="0.49" stop-color="#f4607c"/><stop offset="1" stop-color="#db6086"/></linearGradient><linearGradient id="linear-gradient-4" x1="428.03" y1="621.02" x2="687.71" y2="516.1" gradientUnits="userSpaceOnUse"><stop offset="0.64" stop-color="#ffb192"/><stop offset="1" stop-color="#ff9892"/></linearGradient></defs><title>hero-background-test</title><g class="cls-2"><g id="Červené_slunce" data-name="Červené slunce"><circle class="cls-3" cx="89" cy="727" r="703.93"/><circle class="cls-4" cx="89" cy="727" r="703.93"/><g class="cls-5"><circle class="cls-6" cx="89" cy="727" r="612.11"/><path class="cls-7" d="M193.59,37.65L-425.36,262.93a22.54,22.54,0,0,0-13.42,28.92h0a22.54,22.54,0,0,0,28.87,13.53l278.15-101.24a22.54,22.54,0,0,1,28.87,13.53l0.34,0.94A22.54,22.54,0,0,1-116,247.53L-394.11,348.77a22.54,22.54,0,0,0-13.42,28.92h0a22.54,22.54,0,0,0,28.87,13.53l127.8-46.51A22.54,22.54,0,0,1-222,358.23h0a22.54,22.54,0,0,1-13.42,28.92l-184.18,67A22.54,22.54,0,0,0-433,483.1h0a22.54,22.54,0,0,0,28.87,13.53L-171.57,412a22.54,22.54,0,0,1,28.87,13.53l0.34,0.94a22.54,22.54,0,0,1-13.42,28.92l-91.62,33.35a22.54,22.54,0,0,0-13.42,28.92h0A22.54,22.54,0,0,0-232,531.16l24.43-8.89a22.54,22.54,0,0,1,28.87,13.53h0a22.54,22.54,0,0,1-13.42,28.92l-52.62,19.15a22.54,22.54,0,0,0-13.42,28.92l0.34,0.94a22.54,22.54,0,0,0,28.87,13.53l80.81-29.41a22.54,22.54,0,0,1,28.87,13.53h0a22.54,22.54,0,0,1-13.42,28.92l-203,73.88A22.54,22.54,0,0,0-349,743.09h0a22.54,22.54,0,0,0,28.87,13.53l259.36-94.4a22.54,22.54,0,0,1,28.87,13.53l0.34,0.94A22.54,22.54,0,0,1-45,705.6l-62,22.57a22.54,22.54,0,0,0-13.42,28.92h0a22.54,22.54,0,0,0,28.87,13.53l24.43-8.89a22.54,22.54,0,0,1,28.87,13.53h0a22.54,22.54,0,0,1-13.42,28.92l-52.62,19.15a22.54,22.54,0,0,0-13.42,28.92l0.34,0.94a22.54,22.54,0,0,0,28.87,13.53L20.47,827a22.54,22.54,0,0,1,28.87,13.53h0a22.54,22.54,0,0,1-13.42,28.92l-52.62,19.15a22.54,22.54,0,0,0-13.42,28.92h0A22.54,22.54,0,0,0-1.26,931.09l24.43-8.89A22.54,22.54,0,0,1,52,935.73l0.34,0.94A22.54,22.54,0,0,1,39,965.59l-118.4,43.09a22.54,22.54,0,0,0-13.42,28.92h0A22.54,22.54,0,0,0-64,1051.13l62-22.57a22.54,22.54,0,0,1,28.87,13.53h0A22.54,22.54,0,0,1,13.49,1071l-24.43,8.89a22.54,22.54,0,0,0-13.42,28.92l0.34,0.94a22.54,22.54,0,0,0,28.87,13.53l165.39-60.2a22.54,22.54,0,0,1,28.87,13.53h0a22.54,22.54,0,0,1-13.42,28.92l-240.56,87.56A22.54,22.54,0,0,0-68.3,1222h0a22.54,22.54,0,0,0,28.87,13.53l99.61-36.25A22.54,22.54,0,0,1,89,1212.81l0.34,0.94A22.54,22.54,0,0,1,76,1242.67l-127.8,46.51a22.54,22.54,0,0,0-13.42,28.92h0a22.54,22.54,0,0,0,28.87,13.53l62-22.57a22.54,22.54,0,0,1,28.87,13.53h0a22.54,22.54,0,0,1-13.42,28.92l-62,22.57A22.54,22.54,0,0,0-34.35,1403l0.34,0.94a22.54,22.54,0,0,0,28.87,13.53l618.95-225.28,364-132.47a22.54,22.54,0,0,0,13.42-28.92L586.43-81.29a22.54,22.54,0,0,0-28.87-13.53Z"/><path class="cls-8" d="M574.28-100.9L-44.67,124.38a22.5,22.5,0,0,0-13.45,28.84h0a22.5,22.5,0,0,0,28.84,13.45L418,3.86a22.5,22.5,0,0,1,28.84,13.45l0.34,0.94a22.5,22.5,0,0,1-13.45,28.84L-13.55,209.89A22.5,22.5,0,0,0-27,238.73h0A22.5,22.5,0,0,0,1.84,252.17l24.43-8.89a22.5,22.5,0,0,1,28.84,13.45h0a22.5,22.5,0,0,1-13.45,28.84L-39.15,315a22.5,22.5,0,0,0-13.45,28.84h0a22.5,22.5,0,0,0,28.84,13.45L151,293.65a22.5,22.5,0,0,1,28.84,13.45l0.34,0.94a22.5,22.5,0,0,1-13.45,28.84l-15,5.47a22.5,22.5,0,0,0-13.45,28.84h0a22.5,22.5,0,0,0,28.84,13.45l5.64-2.05A22.5,22.5,0,0,1,201.59,396h0a22.5,22.5,0,0,1-13.45,28.84L135.52,444a22.5,22.5,0,0,0-13.45,28.84l0.34,0.94a22.5,22.5,0,0,0,28.84,13.45l80.81-29.41a22.5,22.5,0,0,1,28.84,13.45h0a22.5,22.5,0,0,1-13.45,28.84L44.49,574A22.5,22.5,0,0,0,31,602.84h0a22.5,22.5,0,0,0,28.84,13.45l259.36-94.4a22.5,22.5,0,0,1,28.84,13.45l0.34,0.94A22.5,22.5,0,0,1,335,565.11l-62,22.57a22.5,22.5,0,0,0-13.45,28.84h0A22.5,22.5,0,0,0,288.34,630l24.43-8.89a22.5,22.5,0,0,1,28.84,13.45h0a22.5,22.5,0,0,1-13.45,28.84l-52.62,19.15a22.5,22.5,0,0,0-13.45,28.84l0.34,0.94a22.5,22.5,0,0,0,28.84,13.45l109-39.67a22.5,22.5,0,0,1,28.84,13.45h0a22.5,22.5,0,0,1-13.45,28.84L363,747.51a22.5,22.5,0,0,0-13.45,28.84h0a22.5,22.5,0,0,0,28.84,13.45l24.43-8.89a22.5,22.5,0,0,1,28.84,13.45l0.34,0.94a22.5,22.5,0,0,1-13.45,28.84L300.2,867.22a22.5,22.5,0,0,0-13.45,28.84h0a22.5,22.5,0,0,0,28.84,13.45l62-22.57a22.5,22.5,0,0,1,28.84,13.45h0A22.5,22.5,0,0,1,393,929.22l-24.43,8.89A22.5,22.5,0,0,0,355.12,967l0.34,0.94a22.5,22.5,0,0,0,28.84,13.45l165.39-60.2a22.5,22.5,0,0,1,28.84,13.45h0a22.5,22.5,0,0,1-13.45,28.84L324.51,1051a22.5,22.5,0,0,0-13.45,28.84h0a22.5,22.5,0,0,0,28.84,13.45L439.51,1057a22.5,22.5,0,0,1,28.84,13.45l0.34,0.94a22.5,22.5,0,0,1-13.45,28.84l-127.8,46.51A22.5,22.5,0,0,0,314,1175.6h0A22.5,22.5,0,0,0,342.84,1189l62-22.57a22.5,22.5,0,0,1,28.84,13.45h0a22.5,22.5,0,0,1-13.45,28.84l-62,22.57a22.5,22.5,0,0,0-13.45,28.84l0.34,0.94A22.5,22.5,0,0,0,374,1274.56l618.95-225.28,364-132.47A22.5,22.5,0,0,0,1370.33,888L967.09-219.93a22.5,22.5,0,0,0-28.84-13.45Z"/><path class="cls-9" d="M781-176.15L162.06,49.13A22.5,22.5,0,0,0,148.61,78h0a22.5,22.5,0,0,0,28.84,13.45L624.75-71.38a22.5,22.5,0,0,1,28.84,13.45L653.93-57a22.5,22.5,0,0,1-13.45,28.84L193.19,134.64a22.5,22.5,0,0,0-13.45,28.84h0a22.5,22.5,0,0,0,28.84,13.45L233,168a22.5,22.5,0,0,1,28.84,13.45h0a22.5,22.5,0,0,1-13.45,28.84l-80.81,29.41a22.5,22.5,0,0,0-13.45,28.84h0A22.5,22.5,0,0,0,183,282l174.78-63.62a22.5,22.5,0,0,1,28.84,13.45l0.34,0.94a22.5,22.5,0,0,1-13.45,28.84l-15,5.47A22.5,22.5,0,0,0,345,295.94h0a22.5,22.5,0,0,0,28.84,13.45l5.64-2.05a22.5,22.5,0,0,1,28.84,13.45h0a22.5,22.5,0,0,1-13.45,28.84l-52.62,19.15a22.5,22.5,0,0,0-13.45,28.84l0.34,0.94A22.5,22.5,0,0,0,358,412l80.81-29.41A22.5,22.5,0,0,1,467.64,396h0a22.5,22.5,0,0,1-13.45,28.84L270,491.91a22.5,22.5,0,0,0-13.45,28.84h0A22.5,22.5,0,0,0,285.4,534.2L526,446.64a22.5,22.5,0,0,1,28.84,13.45l0.34,0.94a22.5,22.5,0,0,1-13.45,28.84l-62,22.57a22.5,22.5,0,0,0-13.45,28.84h0a22.5,22.5,0,0,0,28.84,13.45l24.43-8.89a22.5,22.5,0,0,1,28.84,13.45h0a22.5,22.5,0,0,1-13.45,28.84l-52.62,19.15a22.5,22.5,0,0,0-13.45,28.84l0.34,0.94A22.5,22.5,0,0,0,498,650.5l109-39.67a22.5,22.5,0,0,1,28.84,13.45h0a22.5,22.5,0,0,1-13.45,28.84l-52.62,19.15a22.5,22.5,0,0,0-13.45,28.84h0a22.5,22.5,0,0,0,28.84,13.45l24.43-8.89a22.5,22.5,0,0,1,28.84,13.45l0.34,0.94a22.5,22.5,0,0,1-13.45,28.84L506.93,792a22.5,22.5,0,0,0-13.45,28.84h0a22.5,22.5,0,0,0,28.84,13.45l62-22.57a22.5,22.5,0,0,1,28.84,13.45h0A22.5,22.5,0,0,1,599.73,854l-24.43,8.89a22.5,22.5,0,0,0-13.45,28.84l0.34,0.94A22.5,22.5,0,0,0,591,906.1L935,780.92a22.5,22.5,0,0,1,28.84,13.45h0a22.5,22.5,0,0,1-13.45,28.84L531.25,975.74a22.5,22.5,0,0,0-13.45,28.84h0A22.5,22.5,0,0,0,546.64,1018l99.61-36.25a22.5,22.5,0,0,1,28.84,13.45l0.34,0.94A22.5,22.5,0,0,1,662,1025l-127.8,46.51a22.5,22.5,0,0,0-13.45,28.84h0a22.5,22.5,0,0,0,28.84,13.45l62-22.57a22.5,22.5,0,0,1,28.84,13.45h0A22.5,22.5,0,0,1,627,1133.52l-62,22.57a22.5,22.5,0,0,0-13.45,28.84l0.34,0.94a22.5,22.5,0,0,0,28.84,13.45L1199.64,974l364-132.47a22.5,22.5,0,0,0,13.45-28.84L1173.82-295.17A22.5,22.5,0,0,0,1145-308.62Z"/></g></g></g></svg>